<?xml version="1.0" encoding="UTF-8" standalone="no"?>
<!-- Created with Inkscape (http://www.inkscape.org/) -->

<svg
   xmlns:dc="http://purl.org/dc/elements/1.1/"
   xmlns:cc="http://creativecommons.org/ns#"
   xmlns:rdf="http://www.w3.org/1999/02/22-rdf-syntax-ns#"
   xmlns:svg="http://www.w3.org/2000/svg"
   xmlns="http://www.w3.org/2000/svg"
   xmlns:sodipodi="http://sodipodi.sourceforge.net/DTD/sodipodi-0.dtd"
   xmlns:inkscape="http://www.inkscape.org/namespaces/inkscape"
   id="svg3390"
   version="1.1"
   inkscape:version="0.91 r13725"
   width="265.79858"
   height="284.4538"
   viewBox="0 0 265.79858 284.4538"
   sodipodi:docname="zergling.svg">
  <metadata
     id="metadata3396">
    <rdf:RDF>
      <cc:Work
         rdf:about="">
        <dc:format>image/svg+xml</dc:format>
        <dc:type
           rdf:resource="http://purl.org/dc/dcmitype/StillImage" />
        <dc:title></dc:title>
      </cc:Work>
    </rdf:RDF>
  </metadata>
  <defs
     id="defs3394" />
  <sodipodi:namedview
     pagecolor="#ffffff"
     bordercolor="#666666"
     borderopacity="1"
     objecttolerance="10"
     gridtolerance="10"
     guidetolerance="10"
     inkscape:pageopacity="0"
     inkscape:pageshadow="2"
     inkscape:window-width="1039"
     inkscape:window-height="736"
     id="namedview3392"
     showgrid="false"
     inkscape:zoom="1.0598304"
     inkscape:cx="122.31866"
     inkscape:cy="145.47875"
     inkscape:window-x="0"
     inkscape:window-y="0"
     inkscape:window-maximized="0"
     inkscape:current-layer="svg3390"
     fit-margin-top="0"
     fit-margin-left="0"
     fit-margin-right="0"
     fit-margin-bottom="0" />
  <g
     id="g3410"
     transform="translate(-19.29014,-5.9043526)">
    <path
       style="fill:#b591b6"
       d="m 157.51228,287.21562 c -1.66536,-2.54168 -1.94538,-5.12454 -1.40705,-12.97868 l 0.67209,-9.80552 -10.45663,0.65236 c -6.6214,0.4131 -12.53795,0.0696 -16.13132,-0.93645 l -5.67471,-1.58881 -5.26206,6.10262 c -11.72644,13.59962 -15.62735,16.93014 -19.332042,16.50533 -3.066096,-0.35159 -4.263695,-1.90976 -9.436532,-12.2777 -5.347078,-10.71716 -12.889395,-19.91973 -16.376542,-19.9814 -0.578211,-0.01 -3.353951,1.95239 -6.16831,4.36137 -5.861515,5.01724 -12.627282,7.37442 -15.994371,5.5724 -3.843034,-2.05672 -5.352539,-13.64703 -5.447535,-41.82737 -0.09766,-28.96954 0.757491,-34.6645 7.226384,-48.125 2.626736,-5.46573 6.875829,-11.11091 12.982434,-17.24799 4.992731,-5.01764 9.077693,-9.29449 9.077693,-9.5041 0,-0.20961 -4.03743,-3.06584 -8.972067,-6.34715 C 47.881353,127.20169 40.091079,117.26593 26.289776,88.107595 17.079912,68.6497 17.044269,67.524537 25.676506,68.747656 c 16.791183,2.379178 41.467262,26.81757 55.614302,55.078614 1.806798,3.60937 3.494658,6.5625 3.7508,6.5625 0.256144,0 0.396634,-12.79688 0.312203,-28.4375 l -0.153512,-28.4375 3.950442,-9.73439 C 94.776529,49.916726 98.266211,44.475512 106.67274,36.458561 119.16018,24.549824 139.81414,15.74472 169.393,9.719942 c 39.72494,-8.0913846 59.68994,-3.7817832 80.77073,17.434993 15.12606,15.223641 24.46221,32.378185 31.44056,57.769892 3.08349,11.219727 3.39849,14.379829 3.47279,34.838943 0.0754,20.74922 -0.14414,23.05927 -2.82061,29.6875 -2.12455,5.2614 -3.54819,7.1875 -5.3125,7.1875 -1.3256,0 -2.41019,-0.84375 -2.41019,-1.875 0,-1.03125 -0.4811,-1.875 -1.06911,-1.875 -2.0857,0 -22.48493,28.26952 -27.05993,37.5 -2.55564,5.15625 -6.55335,12.54232 -8.88379,16.41351 -4.19911,6.9753 -5.66217,15.05825 -3.02108,16.69053 1.99192,1.23107 6.28391,16.72988 6.28391,22.69186 0,6.92124 -1.7989,7.77569 -10.55763,5.01474 -9.76308,-3.07754 -14.02785,-2.59324 -23.35991,2.65275 -8.07971,4.54197 -13.37014,10.26856 -29.83246,32.29193 -2.90104,3.88104 -3.63804,4.18294 -10.28369,4.21267 -6.30345,0.0281 -7.40707,-0.34708 -9.23781,-3.14114 z"
       id="path3420"
       inkscape:connector-curvature="0" />
    <path
       style="fill:#b566ae"
       d="m 158.76879,285.97556 c -1.721,-2.62659 -1.92462,-4.98698 -1.20031,-13.91387 0.816,-10.05673 0.72605,-10.69388 -1.3937,-9.87138 -4.87158,1.89028 -18.62953,2.08741 -25.01306,0.3584 l -6.49707,-1.75978 -10.84029,11.74223 c -8.1053,8.77967 -11.51207,11.64638 -13.50293,11.36241 -1.966002,-0.28043 -4.343079,-3.63396 -9.085384,-12.81746 -4.814957,-9.32419 -7.689099,-13.35502 -11.481595,-16.10229 -5.570495,-4.03524 -5.684858,-4.01675 -14.510033,2.34549 -4.485236,3.2335 -7.209159,4.34193 -10,4.06923 -3.607611,-0.3525 -3.929046,-0.82065 -5.406839,-7.87477 -0.86416,-4.125 -1.931573,-16.54834 -2.37203,-27.60741 -1.444891,-36.27863 3.849897,-53.64315 21.456504,-70.3677 5.148949,-4.891 9.344998,-9.31622 9.324553,-9.83382 -0.02045,-0.51758 -3.536072,-2.89556 -7.8125,-5.28437 -4.459009,-2.4908 -12.431254,-8.98451 -18.691458,-15.22493 C 41.327328,114.81313 40.366757,113.37213 30.805148,93.786171 25.293396,82.495919 20.783779,72.612764 20.783779,71.823605 c 0,-2.818684 8.982605,-1.457461 16.371912,2.480997 13.668997,7.2855 33.897695,31.286288 44.375715,52.650568 1.937742,3.95097 3.940045,7.1836 4.449561,7.1836 0.509516,0 0.814212,-13.35938 0.677102,-29.6875 l -0.24929,-29.6875 4.282005,-10.625 C 96.062992,50.808635 101.90236,41.788245 109.35301,35.310201 131.26195,16.261256 195.03984,1.4188094 219.53378,9.6688345 c 11.97079,4.0319865 19.10526,8.3291345 27.94487,16.8313855 18.01178,17.32435 29.80753,40.995177 35.2632,70.76355 2.70448,14.75663 1.9429,40.60395 -1.48885,50.53142 -2.54431,7.36025 -4.74558,9.24577 -5.85248,5.013 -0.38587,-1.47555 -1.25662,-2.48292 -1.93502,-2.23862 -2.2899,0.82466 -24.24717,30.39702 -26.78111,36.0692 -1.38207,3.09375 -5.17911,10.40625 -8.43786,16.25 -8.22226,14.74457 -8.24363,14.88141 -3.78221,24.22946 4.50432,9.43796 6.52985,22.7886 3.62646,23.90274 -0.98631,0.37847 -4.2296,-0.17144 -7.20731,-1.22203 -9.28622,-3.27636 -15.48227,-2.53096 -24.8816,2.99333 -6.99973,4.11397 -10.355,7.43491 -20.8383,20.625 l -12.49522,15.7215 -5.91347,0 c -4.94739,0 -6.25206,-0.51676 -7.98609,-3.16321 z m 23.97513,-64.9168 c 6.53625,-2.73103 8.1098,-7.56447 6.66546,-20.47422 -1.34149,-11.99047 -3.64338,-17.28916 -8.27603,-19.05048 -4.57932,-1.74107 -6.59957,-0.59565 -6.59957,3.74171 0,5.71136 -2.13291,5.79271 -7.47779,0.28519 -7.50759,-7.73607 -17.92642,-8.25529 -26.72796,-1.33199 -6.10878,4.80515 -4.53878,8.71506 9.449,23.53179 13.39607,14.18993 22.26755,17.76846 32.96689,13.298 z"
       id="path3418"
       inkscape:connector-curvature="0" />
    <path
       style="fill:#82427d"
       d="m 159.44582,285.07627 c -2.57303,-4.09725 -2.65053,-7.8418 -0.40309,-19.47508 l 0.80417,-4.16256 -6.09406,1.01509 c -8.08516,1.34676 -21.40121,0.87001 -25.72515,-0.92103 -3.2962,-1.36532 -3.77238,-1.09791 -9.3868,5.27139 -11.40197,12.93503 -16.4466,17.54891 -18.710544,17.11291 -1.358125,-0.26155 -4.735549,-5.23772 -8.66542,-12.76731 -4.625767,-8.86292 -7.928287,-13.51655 -11.723602,-16.51989 -5.681457,-4.4959 -7.217053,-4.39633 -11.89358,0.77118 -3.192097,3.52722 -8.458068,6.23815 -12.11439,6.2365 -2.543725,-0.001 -3.153027,-1.11613 -5.293905,-9.6875 -2.00618,-8.03209 -2.384802,-13.63526 -2.217147,-32.8112 0.231996,-26.53518 2.448342,-38.33845 9.346897,-49.77746 4.556137,-7.55488 22.75661,-25.38052 24.318985,-23.81814 0.560362,0.56036 -2.929516,5.20977 -7.755283,10.33204 -14.914588,15.83091 -21.783837,29.78253 -21.858314,44.3948 -0.04005,7.85715 0.0045,7.96518 2.394525,5.80228 2.353599,-2.12997 2.663706,-2.0026 9.240097,3.79554 6.174973,5.44421 7.10663,6.97316 10.06632,16.51991 1.793855,5.78624 4.861187,12.56919 6.816293,15.07323 5.33124,6.82809 9.853034,15.09124 14.587457,26.6572 2.340439,5.71757 4.980781,10.3956 5.867421,10.3956 1.1083,0 2.66688,-6.2501 4.9874,-20 1.85642,-11 3.4033,-21.65249 3.4375,-23.6722 0.0526,-3.1041 5.4758,-11.62098 12.69816,-19.94174 0.54365,-0.62632 5.09757,0.70136 10.40326,3.03304 5.19,2.28084 9.79041,3.79291 10.22315,3.36019 0.43272,-0.43274 -1.18088,-3.4851 -3.58578,-6.78304 -12.78465,-17.53205 -21.65697,-45.69388 -22.95792,-72.87125 -1.00969,-21.09284 1.48893,-21.48316 13.02696,-2.03499 11.43927,19.2817 14.68551,19.09186 28.92016,-1.69129 4.24684,-6.20055 8.48068,-11.27372 9.40853,-11.27372 0.92786,0 3.50986,3.23437 5.7378,7.1875 5.85477,10.38842 9.53998,14.8444 13.70278,16.56869 3.25962,1.35017 4.31133,1.14366 9.41859,-1.84939 3.16208,-1.8531 10.19266,-7.90316 15.62353,-13.44459 8.36381,-8.53406 10.16516,-9.83391 11.77573,-8.49725 1.0458,0.86793 4.56978,6.63884 7.83107,12.82423 3.26128,6.1854 7.2782,12.30697 8.92646,13.6035 6.63502,5.2191 13.87987,1.35638 20.97872,-11.18518 1.81574,-3.20789 4.10957,-7.15129 5.09738,-8.76312 l 1.79601,-2.93062 2.83119,2.65975 c 4.8451,4.55175 5.85491,1.3445 5.82749,-18.50863 -0.0245,-17.705464 -1.93597,-33.91489 -3.9994,-33.91489 -0.61693,0 -1.12169,1.373052 -1.12169,3.051229 0,8.394913 -6.7485,2.323947 -8.80345,-7.919613 -0.77308,-3.853639 -1.70944,-8.306695 -2.0808,-9.895679 -0.51568,-2.20646 -0.048,-3.053088 1.97952,-3.58329 1.4601,-0.381823 2.65473,-1.425736 2.65473,-2.319805 0,-6.94405 -15.98575,-29.975327 -24.1103,-34.736633 -11.01285,-6.453958 -34.86835,-12.039579 -51.5147,-12.061853 -15.42005,-0.02063 -45.01328,7.690289 -62.58339,16.30696 -17.27214,8.470544 -27.821851,19.817126 -34.200362,36.783684 -2.784447,7.406504 -2.810701,8.041496 -2.105999,50.9375 0.392479,23.89062 0.279273,43.4375 -0.25157,43.4375 -0.965103,0 -3.98368,-9.81104 -3.98368,-12.94785 0,-2.1182 -15.598052,-30.71639 -21.166218,-38.80713 C 57.122872,95.927454 42.724246,83.777277 27.128111,75.943785 19.792279,72.259206 19.046543,70.38877 24.913349,70.38877 c 14.505763,0 37.708834,22.693569 54.193192,53.00319 3.328731,6.12051 6.614738,10.90176 7.302238,10.625 0.6875,-0.27675 1.165035,-2.75319 1.061189,-5.50319 -0.103845,-2.75 -0.37623,-15.6875 -0.605297,-28.75 l -0.416487,-23.75 5.291257,-13.125 C 98.883856,45.167002 105.83231,36.704475 120.18988,28.238944 145.46239,13.337736 195.90287,3.7913952 218.12008,9.7047172 c 16.38431,4.3608398 30.57865,15.1687078 42.34039,32.2388398 8.26937,12.001575 11.84551,19.303877 16.41238,33.513198 6.06953,18.884702 8.05417,32.129635 7.29458,48.682015 -0.88018,19.18044 -5.34393,34.0729 -8.52361,28.4375 -0.67885,-1.20313 -1.67885,-2.1875 -2.22224,-2.1875 -2.03139,0 -23.7972,29.88416 -28.28006,38.82815 -2.56287,5.11326 -6.84179,13.05124 -9.50874,17.63994 -5.67988,9.77268 -5.92291,12.54557 -1.75346,20.00556 3.33416,5.96545 6.31816,22.11265 4.43451,23.9963 -0.65575,0.65575 -3.22513,0.27324 -6.22373,-0.92656 -13.8661,-5.54812 -28.47072,0.10025 -40.91966,15.82581 -16.68539,21.07705 -19.0839,23.3808 -24.3425,23.3808 -4.0936,0 -5.22029,-0.62004 -7.38212,-4.0625 z m 6.95177,-0.9194 c 0.41875,-0.67755 1.28078,-4.4233 1.91561,-8.32389 1.29219,-7.93952 9.54517,-25.55781 15.82735,-33.78792 3.99632,-5.23545 4.0381,-5.4098 1.32247,-5.51737 -12.77518,-0.50602 -23.22568,1.33609 -26.57374,4.68414 -1.84266,1.84268 -1.73014,2.29599 1.37436,5.53639 3.69509,3.85684 3.67881,3.1302 0.57828,25.81831 -0.68043,4.97903 -0.91169,9.9009 -0.5139,10.9375 0.81013,2.11119 4.89661,2.55073 6.06957,0.65284 z M 54.196027,236.97914 c -0.270594,-2.59345 -0.496526,-0.77787 -0.502073,4.03463 -0.0055,4.8125 0.21585,6.93442 0.49199,4.71537 0.27614,-2.21903 0.280678,-6.15653 0.01013,-8.75 z M 230.0332,227.66101 c -1.18383,-2.28098 -2.37716,-3.48225 -2.65183,-2.66948 -0.27469,0.81276 0.46916,3.34401 1.65298,5.625 1.18384,2.28098 2.37717,3.48225 2.65184,2.66948 0.27469,-0.81277 -0.46916,-3.34402 -1.65299,-5.625 z m -45.25102,-6.17708 c 4.2357,-2.2232 6.0016,-6.47105 6.0016,-14.43677 0,-17.40705 -4.82699,-27.27225 -14.0625,-28.74035 -4.18324,-0.66499 -4.6875,-0.45862 -4.6875,1.91841 0,4.11534 -2.77035,3.08116 -6.61023,-2.46761 -1.96652,-2.84169 -5.45386,-5.85884 -8.00295,-6.92392 -5.63898,-2.35611 -18.21325,-2.62062 -24.5632,-0.51671 -4.66152,1.5445 -4.77663,1.72345 -3.95212,6.14381 0.4671,2.50414 2.4853,8.80169 4.4849,13.99455 3.40011,8.82993 4.37537,10.08089 15.05449,19.3104 12.87268,11.12532 20.88777,14.85413 29.21411,13.59114 2.75,-0.41714 5.95552,-1.25996 7.1234,-1.87295 z M 65.158779,136.51081 C 55.426691,129.94532 49.328376,124.04335 42.579078,114.65812 37.607852,107.74539 27.033779,86.850971 27.033779,83.940539 c 0,-2.778883 2.672662,0.918757 8.566489,11.851776 9.929568,18.419295 18.654619,28.958285 34.558511,41.743205 7.02634,5.64837 3.9601,5.01996 -5,-1.02471 z M 125.08347,97.324254 c -1.10438,-1.685484 -2.75946,-5.561574 -3.67796,-8.613532 -2.69628,-8.959055 0.90157,-19.577626 5.97391,-17.631187 2.7988,1.074002 6.96502,10.078947 7.93406,17.148822 1.38324,10.091819 -5.54258,16.249823 -10.23001,9.095897 z"
       id="path3416"
       inkscape:connector-curvature="0" />
    <path
       style="fill:#634562"
       d="m 177.70555,277.88877 c 8.69337,-12.5416 14.81985,-20.53035 22.52735,-29.375 8.7312,-10.01936 24.59909,-31.99345 23.73038,-32.86216 -0.32015,-0.32015 -3.46431,2.00927 -6.98705,5.17651 -3.52273,3.16724 -9.87276,7.44364 -14.1112,9.50311 -6.99106,3.39699 -9.04034,3.77643 -22.08125,4.08851 -13.80529,0.33039 -14.67224,0.1954 -21.875,-3.40597 -18.37253,-9.18626 -34.86893,-40.26074 -40.02014,-75.38643 -2.09628,-14.29435 -2.08676,-27.56296 0.0201,-28.06545 0.6875,-0.16397 3.87779,4.20188 7.08952,9.70188 10.67847,18.28651 13.87702,20.59819 22.40144,16.19004 3.42775,-1.77257 5.35579,-4.31992 15.38116,-20.32187 l 3.37177,-5.38182 5.97361,9.15066 c 6.25769,9.58581 12.70822,15.98799 16.10875,15.98799 4.74482,0 13.23444,-5.80321 22.16646,-15.15226 5.80919,-6.08042 10.2695,-9.77475 11.31639,-9.37303 0.95039,0.3647 3.77786,4.76645 6.28329,9.78169 8.53656,17.08806 13.32805,21.22056 20.92442,18.04659 4.92424,-2.05748 11.36568,-9.2078 14.96036,-16.60674 1.60224,-3.29789 3.41375,-5.38404 4.4926,-5.1737 0.99429,0.19385 3.72532,3.84771 6.06894,8.11971 3.15944,5.75906 3.95439,8.31541 3.07466,9.88738 -1.07376,1.91872 -1.32518,1.86091 -2.64685,-0.60862 -0.9575,-1.78911 -2.04652,-2.39597 -3.1626,-1.76238 -4.21288,2.39166 -23.82866,30.5837 -32.44011,46.62336 -5.21885,9.72059 -9.48881,18.11414 -9.48881,18.65232 0,0.53819 -1.24674,2.5635 -2.77054,4.5007 -1.5238,1.93719 -3.63317,5.11532 -4.6875,7.06249 -1.05432,1.94719 -4.66184,6.95223 -8.01669,11.12233 l -6.09972,7.582 5.67474,-0.85098 c 3.37437,-0.50602 6.60708,-0.30899 7.97472,0.48606 1.90546,1.10772 1.41699,1.34358 -2.84777,1.37507 -3.55868,0.0263 -7.76218,1.48501 -13.61707,4.72551 -6.83883,3.78509 -10.20658,6.8533 -17.49341,15.9375 -4.96325,6.1875 -10.58479,12.65625 -12.49229,14.375 -2.99466,2.69832 -2.81753,2.18632 1.2973,-3.75 z m 8.07823,-56.11186 c 5.76814,-4.01365 7.37904,-9.49194 6.09472,-20.72672 -1.95758,-17.12431 -8.56726,-26.09988 -18.73833,-25.44562 -3.32994,0.2142 -5.54117,-0.56976 -8.40574,-2.98015 -6.13245,-5.16011 -11.69455,-6.41299 -24.9575,-5.62171 -6.49649,0.38758 -12.42471,1.31762 -13.17383,2.06673 -1.6274,1.6274 1.7298,15.94487 6.03282,25.72819 4.42692,10.06508 24.72622,26.65539 35.97355,29.40064 5.47892,1.3373 13.37187,0.2245 17.17431,-2.42136 z m -92.223864,52.04936 c -2.722408,-4.98438 -5.304637,-10.20913 -5.738285,-11.61055 -0.838848,-2.71091 -11.004018,-11.82695 -13.188065,-11.82695 -0.714489,0 -4.263607,2.24757 -7.886929,4.99462 -3.969438,3.00945 -7.954131,4.99675 -10.025358,5 -4.478848,0.007 -4.336905,-0.72661 0.625,-3.23022 5.142175,-2.59458 10.9375,-7.97266 10.9375,-10.15006 0,-0.91737 -1.451261,-3.86094 -3.225025,-6.54128 -1.802147,-2.72324 -3.043018,-6.15827 -2.8125,-7.7857 0.359699,-2.53941 1.004942,-2.02722 5.038707,3.99964 2.5444,3.8016 6.060025,8.25902 7.8125,9.9054 l 3.186318,2.99339 0,-3.49595 c 0,-3.09495 0.23457,-3.30128 2.045008,-1.79874 3.404714,2.82565 7.587954,10.26482 13.043407,23.19542 2.851495,6.75867 6.074383,12.9916 7.161976,13.85098 1.80065,1.42281 1.79855,1.5625 -0.0235,1.5625 -1.195422,0 -3.993568,-3.64826 -6.950761,-9.0625 z m 9.741734,7.35105 c -0.0279,-1.69466 18.87153,-24.5252 21.44033,-25.89998 1.8615,-0.99625 2.2918,-0.7647 2.2918,1.23322 0,1.36192 -1.11579,2.81387 -2.5,3.25321 -1.375,0.43641 -2.50193,1.17744 -2.50429,1.64674 -0.007,1.28442 -18.70719,21.02263 -18.72784,19.76681 z m 32.48213,-19.21085 c -9.79743,-0.84568 -8.01768,-2.44144 2.14155,-1.92015 6.03051,0.30944 12.23005,-0.17408 16.29595,-1.27095 4.65027,-1.25451 6.5625,-1.36021 6.5625,-0.36273 0,1.57984 -11.53004,4.59409 -16.2866,4.25774 -1.69863,-0.12012 -5.61965,-0.43687 -8.7134,-0.70391 z m 94.375,-14.13109 c -2.75,-1.36831 -4.05558,-2.23029 -2.90126,-1.91551 1.1543,0.31477 4.10742,0.94915 6.5625,1.40972 2.45506,0.46058 4.46376,1.3373 4.46376,1.94829 0,1.73911 -2.69073,1.26141 -8.125,-1.4425 z M 49.232144,239.13877 c -1.421637,-10.54759 -1.143326,-33.58984 0.374267,-30.98663 0.718537,1.23254 1.099567,9.70468 0.899488,20 -0.275553,14.17904 -0.538167,16.44419 -1.273755,10.98663 z m 4.051635,-59.51253 c 0,-2.90115 8.73929,-16.15485 13.996859,-21.22715 6.981536,-6.73551 6.866923,-5.47418 -0.294385,3.23968 -2.542534,3.09375 -6.432716,8.57812 -8.644849,12.1875 -3.765882,6.14451 -5.057625,7.62585 -5.057625,5.79997 z m 33.19588,-38.26561 c -2.576587,-3.67859 -2.454157,-4.72186 0.55412,-4.72186 1.944445,0 2.5,0.83334 2.5,3.75 0,4.48157 -0.487228,4.63661 -3.05412,0.97186 z M 51.907624,124.45127 c -6.509845,-6.83242 -11.107481,-12.94817 -14.095678,-18.75 -3.324923,-6.455606 -1.272189,-4.72107 3.698271,3.125 2.504292,3.95312 7.341456,10.42187 10.749252,14.375 7.520329,8.72376 7.349002,9.33244 -0.351845,1.25 z m 230.384546,4.0625 c -0.14327,-0.6875 -0.83274,-7.4375 -1.53217,-15 -1.515,-16.380909 -5.54788,-36.937384 -8.28498,-42.230351 -2.43748,-4.713552 -6.85299,-17.399565 -6.26188,-17.990684 0.70854,-0.708535 7.85034,15.804151 10.63788,24.596035 4.56886,14.410154 6.55957,27.42701 6.11816,40.00533 -0.2291,6.52832 -0.53376,11.30717 -0.67701,10.61967 z M 75.907249,122.19232 c -1.442908,-2.44555 -2.62347,-4.76474 -2.62347,-5.15376 0,-1.9826 -11.880963,-16.90407 -18.393221,-23.100306 -7.427756,-7.067312 -24.410539,-18.933955 -29.332947,-20.496268 -1.90701,-0.605261 -2.17477,-1.091897 -1.000209,-1.817816 4.256277,-2.630524 17.836784,5.528004 29.441385,17.686994 7.594021,7.956811 22.042654,28.304806 24.283297,34.198146 1.684358,4.4302 0.691094,3.87937 -2.374835,-1.31699 z m 11.961482,-8.14317 c -1.093509,-14.050003 -1.049285,-28.633376 0.102548,-33.81663 0.602794,-2.712575 1.167118,3.591049 1.58065,17.65625 0.691289,23.51234 -0.340213,33.41579 -1.683198,16.16038 z M 126.84422,96.95127 c -6.25904,-7.493923 -6.48019,-24.0625 -0.32118,-24.0625 2.35309,0 6.52025,9.146552 7.53279,16.533781 0.57899,4.224194 0.26444,6.00116 -1.34768,7.613271 -2.65157,2.651573 -3.58998,2.638042 -5.86393,-0.08455 z M 267.07448,82.964815 c -2.32475,-4.343839 -4.86133,-18.789363 -3.45225,-19.660219 2.88205,-1.781206 7.14146,8.575729 7.15457,17.396674 0.007,5.095186 -1.64586,6.106077 -3.70232,2.263545 z M 100.87983,46.63877 c 11.11619,-16.358738 33.82905,-27.581323 70.77666,-34.97125 29.75441,-5.9512094 49.61075,-3.9419005 64.51176,6.528096 4.9199,3.456908 3.65419,3.787616 -3.74132,0.977541 -16.40381,-6.232956 -44.34285,-9.2347985 -57.65213,-6.194292 -39.96346,9.129665 -55.36091,16.036365 -70.67776,31.703295 -5.021797,5.13657 -5.629018,5.505865 -3.21721,1.95661 z"
       id="path3414"
       inkscape:connector-curvature="0" />
    <path
       style="fill:#642d62"
       d="m 97.990144,280.70127 c -1.062107,-1.20313 -4.218595,-6.76703 -7.014417,-12.36423 -3.196359,-6.39906 -6.833224,-11.61913 -9.797436,-14.0625 -4.747153,-3.913 -9.546108,-5.01978 -11.070538,-2.55321 -1.562826,2.5287 -10.955329,8.66744 -13.261521,8.66744 -3.121369,0 -2.938843,-2.13273 0.26968,-3.15106 3.616627,-1.14788 11.167867,-7.99752 11.167867,-10.13023 0,-0.97477 -1.451261,-3.96531 -3.225025,-6.64565 -1.802147,-2.72324 -3.043018,-6.15827 -2.8125,-7.7857 0.359699,-2.53941 1.004942,-2.02722 5.038707,3.99964 2.5444,3.8016 6.060025,8.25902 7.8125,9.9054 l 3.186318,2.99339 0,-3.49595 c 0,-3.09495 0.23457,-3.30128 2.045008,-1.79874 3.392237,2.8153 7.577067,10.24237 13.069606,23.19542 2.865904,6.75867 5.768905,12.9916 6.451116,13.85098 1.892941,2.38452 0.335161,1.8609 -1.859365,-0.625 z m 7.459206,-2.8125 c 3.08226,-4.8839 18.05313,-22.31645 19.71167,-22.95289 1.27285,-0.48844 1.87276,0.0696 1.87276,1.74211 0,1.35343 -0.70313,2.46053 -1.5625,2.46023 -0.85938,-3e-4 -5.98212,4.64032 -11.38388,10.3125 -5.40176,5.67217 -9.28888,9.4693 -8.63805,8.43805 z m 75.4006,-4.375 c 6.11243,-9.08141 11.80442,-16.4225 19.86863,-25.625 8.27656,-9.44484 24.09671,-31.38516 23.2447,-32.23716 -0.32015,-0.32015 -3.46431,2.00927 -6.98705,5.17651 -3.52273,3.16724 -9.87276,7.44364 -14.1112,9.50311 -6.99106,3.39699 -9.04034,3.77643 -22.08125,4.08851 -13.80529,0.33039 -14.67224,0.1954 -21.875,-3.40597 -18.37253,-9.18626 -34.86893,-40.26074 -40.02014,-75.38643 -2.09628,-14.29435 -2.08676,-27.56296 0.0201,-28.06545 0.6875,-0.16397 3.87779,4.20188 7.08952,9.70188 3.21174,5.5 7.39899,11.88962 9.305,14.19916 3.20767,3.88679 3.86588,4.14429 8.84798,3.46141 2.96037,-0.40576 5.3825,-0.27318 5.3825,0.2946 0,1.7446 -4.44864,5.16983 -6.71448,5.16983 -2.85812,0 -13.51351,-10.08324 -16.48376,-15.59868 -2.96579,-5.50713 -4.6268,-5.658 -3.73048,-0.33882 2.93324,17.40704 3.55224,22.02719 3.39128,25.3125 -0.101,2.0625 0.67886,6.84375 1.73314,10.625 4.12959,14.81116 6.65101,19.28531 16.23131,28.80166 5.12764,5.09343 9.32683,9.83735 9.33153,10.54205 0.0159,2.38271 8.07147,6.78738 16.23928,8.87938 10.92574,2.79836 21.65108,1.74577 32.11742,-3.15202 10.7427,-5.02712 17.69792,-10.96768 27.0052,-23.06561 7.01425,-9.11737 10.52675,-14.24322 26.26703,-38.33195 2.49828,-3.82332 7.08937,-9.64795 10.20242,-12.94362 5.33738,-5.65048 7.14311,-9.47989 4.47016,-9.47989 -0.65448,0 -2.85688,2.4228 -4.89424,5.384 -7.93157,11.52815 -17.08282,17.19899 -21.16581,13.116 -2.12344,-2.12344 -1.86095,-3.90599 0.44487,-3.02115 5.24923,2.01431 15.63719,-6.68511 20.88789,-17.49265 1.46598,-3.01741 3.38569,-5.4862 4.26604,-5.4862 2.19315,0 9.13429,12.39526 9.09971,16.25 -0.0256,2.86417 -0.16661,2.94242 -1.68857,0.9375 -0.9133,-1.20313 -2.26357,-2.1875 -3.00059,-2.1875 -2.23324,0 -24.63516,30.07514 -29.34933,39.4022 -2.42482,4.79754 -6.38671,12.20872 -8.80421,16.46929 -2.41749,4.26057 -4.79056,9.04182 -5.27347,10.625 -0.48293,1.58318 -1.70729,3.82405 -2.72082,4.9797 -1.01352,1.15566 -2.77512,3.83605 -3.91465,5.95642 -1.13953,2.12038 -4.80241,7.24888 -8.13972,11.39665 l -6.06785,7.54143 6.69285,-0.78263 c 4.89322,-0.5722 6.18869,-0.42551 4.81785,0.54551 -1.03125,0.73048 -3.06618,1.33677 -4.52206,1.34729 -1.45589,0.01 -6.56322,2.28643 -11.34962,5.05754 -6.51036,3.76922 -10.14553,6.99672 -14.43091,12.8125 -3.1506,4.27576 -7.55301,9.4616 -9.78314,11.5241 l -4.05477,3.75 4.20667,-6.25 z m -49.66648,-12.85153 c -0.81143,-0.51603 2.56357,-0.75837 7.5,-0.53851 5.10333,0.22729 11.8064,-0.3592 15.53781,-1.3595 5.02692,-1.3476 6.5625,-1.40311 6.5625,-0.23726 0,2.63245 -25.8827,4.49954 -29.60031,2.13527 z m 103.97531,-11.52347 c -0.4249,-0.6875 -0.17685,-1.25 0.55122,-1.25 0.72808,0 1.32378,0.5625 1.32378,1.25 0,0.6875 -0.24805,1.25 -0.55123,1.25 -0.30317,0 -0.89887,-0.5625 -1.32377,-1.25 z M 49.097753,233.82627 c -0.40136,-4.98438 -0.26316,-12.71875 0.30711,-17.1875 0.920538,-7.2135 1.056044,-6.19683 1.207886,9.0625 0.09406,9.45312 -0.04414,17.1875 -0.30711,17.1875 -0.262977,0 -0.806526,-4.07813 -1.207886,-9.0625 z m 5.464449,-55.9375 c -0.03963,-3.89503 10.783966,-19.00886 15.371046,-21.46379 1.786075,-0.95587 0.984356,0.58609 -2.448217,4.70874 -2.807185,3.37152 -6.858924,8.94255 -9.003863,12.38005 -2.144939,3.4375 -3.908472,5.40625 -3.918966,4.375 z M 184.40613,155.04299 c -4.02186,-2.69468 -8.88528,-9.10987 -14.06545,-18.55332 l -2.31811,-4.2259 -4.24439,4.89576 c -4.48391,5.17203 -5.4959,5.19776 -2.3694,0.0602 1.03125,-1.69456 2.74882,-4.51337 3.81682,-6.26404 l 1.94183,-3.18301 5.96624,9.13935 c 6.25106,9.57569 12.70202,15.97669 16.10136,15.97669 4.74482,0 13.23444,-5.80321 22.16646,-15.15226 5.79803,-6.06874 10.27036,-9.77443 11.31348,-9.37414 1.94956,0.74811 9.8402,15.67167 8.82367,16.6882 -0.36235,0.36235 -2.45201,-2.22583 -4.64369,-5.75149 -2.19167,-3.52567 -4.32266,-6.40786 -4.73552,-6.40486 -0.41285,0.002 -4.9694,4.028 -10.12565,8.94445 -9.26223,8.83147 -19.12756,16.0501 -21.93488,16.0501 -0.79497,0 -3.35672,-1.2806 -5.69277,-2.84578 z M 86.728989,141.68414 c -1.959343,-2.76817 -1.981466,-3.19061 -0.218746,-4.17707 2.612084,-1.4618 3.293485,-0.56181 2.805091,3.70492 l -0.406555,3.55178 -2.17979,-3.07963 z m -11.01455,-19.72759 c -2.823702,-5.63415 -2.783707,-6.19031 0.131452,-1.82788 1.512362,2.2632 2.489703,4.37495 2.17187,4.69278 -0.317834,0.31784 -1.354329,-0.97137 -2.303322,-2.8649 z m 12.057518,-14.81318 c -0.489018,-9.633698 -0.433286,-20.578918 0.123849,-24.322708 0.818625,-5.500923 1.136368,-2.609961 1.656123,15.068108 0.783639,26.65338 -0.545895,33.56602 -1.779972,9.2546 z m -42.348625,9.69753 c -4.714104,-6.56169 -8.860994,-13.95213 -7.828753,-13.95213 0.34375,0 1.458903,1.61259 2.478117,3.58353 1.019213,1.97094 3.884635,6.24497 6.367602,9.49783 2.482968,3.25287 4.26466,6.16413 3.959318,6.46947 -0.305344,0.30534 -2.544672,-2.21407 -4.976284,-5.5987 z M 280.3768,110.70127 c -0.42972,-6.01563 -1.8972,-16.257383 -3.26105,-22.759463 -1.36383,-6.502078 -2.27878,-12.022893 -2.0332,-12.268477 1.78455,-1.78455 8.20123,29.12071 8.20123,39.50035 0,10.53441 -2.06153,7.36273 -2.90698,-4.47241 z M 56.991079,95.92038 C 53.233314,92.087765 45.329352,85.75964 39.426718,81.85788 c -5.902634,-3.901761 -11.808884,-7.819841 -13.125,-8.706846 -2.118026,-1.427458 -1.891892,-1.531887 1.968349,-0.908993 6.718894,1.084171 16.947745,7.91546 25.688039,17.155633 6.832362,7.223122 11.601235,13.491096 10.264453,13.491096 -0.21955,0 -3.473715,-3.135776 -7.23148,-6.96839 z m 69.853141,1.03089 c -6.25904,-7.493923 -6.48019,-24.0625 -0.32118,-24.0625 2.35309,0 6.52025,9.146552 7.53279,16.533781 0.57899,4.224194 0.26444,6.00116 -1.34768,7.613271 -2.65157,2.651573 -3.58998,2.638042 -5.86393,-0.08455 z M 267.07448,82.964815 c -2.32475,-4.343839 -4.86133,-18.789363 -3.45225,-19.660219 2.88205,-1.781206 7.14146,8.575729 7.15457,17.396674 0.007,5.095186 -1.64586,6.106077 -3.70232,2.263545 z m 4.09567,-14.555863 c -1.4301,-3.37985 -2.9979,-7.551432 -3.48401,-9.270182 -0.84064,-2.972276 -0.79871,-3.002821 0.85778,-0.625 2.85781,4.102264 6.30923,12.791864 5.74871,14.473439 -0.28726,0.861808 -1.69239,-1.198407 -3.12248,-4.578257 z M 102.03378,45.611759 c 0,-2.753852 14.3141,-14.228713 23.52871,-18.861728 9.42528,-4.738935 27.23099,-10.536681 42.09629,-13.707037 3.4375,-0.733124 8.91635,-1.918195 12.17521,-2.633492 11.47336,-2.5183159 23.70949,-2.8386351 32.99068,-0.8636343 10.49873,2.2340903 20.68522,6.3896633 23.62461,9.6376523 2.01939,2.231399 1.87267,2.229569 -4.13071,-0.05154 -16.29954,-6.193333 -44.27393,-9.1846164 -57.54377,-6.153117 -38.13213,8.7113 -54.93571,15.937925 -68.42495,29.427165 -2.37384,2.37384 -4.31607,3.816417 -4.31607,3.205729 z"
       id="path3412"
       inkscape:connector-curvature="0" />
  </g>
</svg>
